<svg width="31" height="30" viewBox="0 0 31 30" fill="none" xmlns="http://www.w3.org/2000/svg">
<g clip-path="url(#clip0_216_2604)">
<rect x="2.42922" y="7.23122" width="26.9246" height="14.9809" rx="2.88957" stroke="white" stroke-width="1.44479"/>
<path d="M11.645 7.5061V21.8781" stroke="white" stroke-width="1.44479" stroke-linecap="round"/>
<path d="M20.6689 7.5061V21.8781" stroke="white" stroke-width="1.44479" stroke-linecap="round"/>
<path d="M26.0001 22.5361H24.4614V17.2916L23.2586 18.516L22.3809 17.595L24.6565 15.3086H26.0001V22.5361Z" fill="white"/>
<rect x="5.54459" y="11.143" width="3.17657" height="6.36155" rx="1.58828" stroke="white" stroke-width="1.60089"/>
<rect x="14.3031" y="11.143" width="3.17657" height="6.36155" rx="1.58828" stroke="white" stroke-width="1.60089"/>
<path d="M26.2387 11.1393V7.95435C26.2387 7.84217 26.2272 7.76918 26.2158 7.72498C26.205 7.68328 26.1947 7.66877 26.1943 7.66819L26.1943 7.66817C26.1941 7.66793 26.194 7.66777 26.1939 7.66768L26.1939 7.66766M26.2387 11.1393L26.1939 7.66766M26.2387 11.1393C26.2387 12.0165 25.5276 12.7276 24.6504 12.7276C23.7733 12.7276 23.0622 12.0165 23.0622 11.1393V7.95435C23.0622 7.84217 23.0737 7.76918 23.0851 7.72498C23.0959 7.68329 23.1062 7.66877 23.1066 7.66819L23.1066 7.66817C23.1067 7.66801 23.1068 7.66789 23.1069 7.6678C23.1069 7.66774 23.1069 7.66769 23.107 7.66766M26.2387 11.1393L23.107 7.66766M26.1939 7.66766L26.1927 7.66658C26.1918 7.66589 26.1903 7.66474 26.1879 7.66318C26.1785 7.65691 26.1538 7.64284 26.103 7.62714C25.9915 7.59264 25.8205 7.56938 25.5553 7.56111C25.3776 7.55557 25.1975 7.55701 24.9929 7.55864C24.8864 7.55949 24.7733 7.56039 24.6504 7.56039C24.5276 7.56039 24.4145 7.55949 24.308 7.55864C24.1034 7.55701 23.9233 7.55557 23.7456 7.56111C23.4804 7.56938 23.3094 7.59264 23.1979 7.62714C23.1471 7.64284 23.1224 7.65691 23.113 7.66318C23.1106 7.66474 23.1091 7.66589 23.1082 7.66658L23.107 7.66766M26.1939 7.66766L23.107 7.66766" stroke="white" stroke-width="1.60089"/>
</g>
<defs>
<clipPath id="clip0_216_2604">
<rect width="30" height="30" fill="white" transform="translate(0.895508)"/>
</clipPath>
</defs>
</svg>
