<svg width="30" height="31" viewBox="0 0 30 31" fill="none" xmlns="http://www.w3.org/2000/svg">
<path d="M14.8644 4.45856V4.45871C19.385 4.45871 23.0515 8.0395 23.0515 12.4591C23.0515 13.8133 22.7061 15.1202 22.057 16.2836C22.0451 16.3109 22.0314 16.3381 22.016 16.3648L14.8644 4.45856ZM14.8644 4.45856L14.8623 4.45872C10.3425 4.45975 6.67673 8.04023 6.67673 12.4591C6.67673 13.7946 7.01273 15.0841 7.64448 16.2352L14.8644 4.45856ZM20.6627 15.6233L20.6181 15.5975C20.6042 15.6215 20.5919 15.6459 20.5811 15.6701L14.8641 25.58L9.16592 15.7152C9.15115 15.6755 9.13282 15.6361 9.11076 15.5977C8.56566 14.6467 8.27565 13.5744 8.27565 12.459C8.27565 8.90567 11.2243 6.02302 14.8644 6.02302C18.5043 6.02302 21.4531 8.90569 21.4531 12.459C21.4531 13.5743 21.1629 14.6467 20.618 15.5977L20.6627 15.6233ZM20.6627 15.6233C20.6494 15.6464 20.6375 15.67 20.6271 15.6935L9.06604 15.6233C8.5165 14.6646 8.22411 13.5834 8.22411 12.459C8.22411 8.87608 11.197 5.97148 14.8644 5.97148C18.5317 5.97148 21.5046 8.8761 21.5046 12.459C21.5046 13.5834 21.2121 14.6645 20.6627 15.6233ZM15.5601 27.5546L22.016 16.3648L7.74949 16.3394L7.70486 16.3651L7.70487 16.3652L14.1682 27.5549C14.4742 28.0849 15.2544 28.0847 15.5601 27.5546ZM18.5052 12.459C18.5052 10.4926 16.8739 8.90057 14.8644 8.90057C12.8547 8.90057 11.2234 10.4926 11.2234 12.459C11.2234 14.4253 12.8547 16.0173 14.8644 16.0173C16.8739 16.0173 18.5052 14.4253 18.5052 12.459ZM12.8221 12.459C12.8221 11.3587 13.7353 10.4649 14.8644 10.4649C15.9935 10.4649 16.9066 11.3587 16.9066 12.459C16.9066 13.5592 15.9935 14.453 14.8644 14.453C13.7353 14.453 12.8221 13.5592 12.8221 12.459Z" fill="white" stroke="white" stroke-width="0.103085"/>
</svg>
