<svg width="31" height="30" viewBox="0 0 31 30" fill="none" xmlns="http://www.w3.org/2000/svg">
<path d="M23.5155 24.3817L23.5155 24.3816C23.7893 24.3005 23.9973 24.1183 24.1163 23.9915C24.2332 23.867 24.4056 23.6455 24.4671 23.3627L24.4705 23.3468L24.4733 23.3309C24.4745 23.3238 24.4774 23.3101 24.4823 23.289L24.4894 23.2592L24.4953 23.2348C24.4961 23.2315 24.4968 23.2284 24.4976 23.2252L24.4977 23.2247L24.4977 23.2247C24.5235 23.1142 24.5211 23.0205 24.5205 22.9964C24.5204 22.9956 24.5204 22.9948 24.5204 22.9941C24.5193 22.9489 24.5155 22.9068 24.5114 22.8726C24.5033 22.8039 24.4896 22.7273 24.4705 22.6525L24.4702 22.6509L24.4702 22.6509C24.4624 22.6207 24.4544 22.5971 24.4522 22.5907L24.4521 22.5905C24.4487 22.5805 24.4457 22.5721 24.4438 22.5668C24.4398 22.5561 24.4359 22.5461 24.433 22.5387C24.4269 22.5233 24.4196 22.5052 24.4118 22.4862C24.396 22.4476 24.374 22.3946 24.3466 22.3295C24.2917 22.1987 24.2128 22.0122 24.1135 21.7787C23.9148 21.3112 23.633 20.6514 23.2955 19.8631C22.6204 18.2863 21.7218 16.1933 20.8182 14.0921C19.0191 9.90852 17.1792 5.64295 17.069 5.41471L17.0658 5.4081L17.0658 5.40812C17.0131 5.30148 16.9486 5.1982 16.8819 5.10901C16.8292 5.03865 16.7295 4.91456 16.5907 4.81787C16.0141 4.40951 15.2188 4.50073 14.7544 5.04103M23.5155 24.3817L8.09334 24.3798C8.09347 24.3798 8.09359 24.3798 8.09372 24.3799M23.5155 24.3817L23.509 24.3835C23.5056 24.3845 23.5045 24.3849 23.4994 24.3865C23.4951 24.3879 23.488 24.3902 23.4742 24.3945C23.4528 24.4013 23.4055 24.4162 23.3487 24.4283C23.2093 24.4578 23.0534 24.4623 22.8827 24.4204C22.6244 24.357 22.3809 24.1922 22.161 24.0343C21.7138 23.7132 20.901 23.0599 19.3276 21.7954C19.1677 21.6668 18.9999 21.532 18.8238 21.3905C18.8237 21.3904 18.8236 21.3904 18.8236 21.3903L15.7915 18.9555L12.7592 21.3905C12.7592 21.3905 12.7591 21.3905 12.7591 21.3905C12.5795 21.5348 12.4085 21.6721 12.2456 21.8029C10.6935 23.0496 9.88653 23.6979 9.4409 24.0194C9.21997 24.1789 8.98183 24.3406 8.73333 24.4074C8.56906 24.4516 8.41375 24.4536 8.26831 24.4261C8.20804 24.4147 8.15855 24.3999 8.1339 24.3923C8.1132 24.386 8.10674 24.3839 8.10308 24.3827C8.10014 24.3818 8.099 24.3814 8.09372 24.3799M23.5155 24.3817L8.09372 24.3799M14.7544 5.04103L15.361 5.56243L14.7559 5.03931C14.7554 5.03988 14.7549 5.04046 14.7544 5.04103ZM14.7544 5.04103C14.6849 5.12193 14.6376 5.21293 14.6302 5.22702C14.6299 5.22778 14.6296 5.22832 14.6294 5.22862C14.6097 5.26545 14.5884 5.30823 14.5666 5.3532C14.5225 5.44447 14.4639 5.5708 14.3906 5.73266C14.2433 6.05778 14.0275 6.54578 13.7301 7.22616C13.1349 8.58794 12.2074 10.7328 10.8363 13.9146L10.8362 13.9148C9.82509 16.2629 8.90401 18.4083 8.23436 19.9731C7.89958 20.7555 7.62743 21.3932 7.43824 21.8388C7.34372 22.0614 7.26949 22.2369 7.21839 22.3589C7.19296 22.4196 7.17252 22.4688 7.15794 22.5045C7.15083 22.5219 7.14392 22.539 7.13816 22.5538C7.13546 22.5607 7.13139 22.5712 7.12718 22.5828C7.12517 22.5884 7.12153 22.5986 7.11746 22.6111L7.11728 22.6116C7.1154 22.6173 7.10281 22.6554 7.09316 22.7037C7.05638 22.8875 7.07417 23.0967 7.09436 23.2195M7.09436 23.2195C7.094 23.2172 7.09365 23.2149 7.0933 23.2126L7.88428 23.0929L7.09557 23.2268C7.09517 23.2244 7.09476 23.222 7.09436 23.2195ZM7.09436 23.2195C7.1776 23.7537 7.52481 24.2166 8.09372 24.3799" stroke="white" stroke-width="1.6"/>
</svg>
