<svg width="31" height="31" viewBox="0 0 31 31" fill="none" xmlns="http://www.w3.org/2000/svg">
<path d="M15.7031 4.39318C15.3681 4.39312 15.3681 4.39312 15.3681 4.39312L14.958 4.4159C13.3945 4.60986 12.0554 5.33596 11.0485 6.36642C9.86536 7.57705 9.11833 9.18864 8.80467 10.9026L7.68257 17.0324C7.44974 18.3042 6.97506 18.5652 6.2977 19.0088C5.95882 19.2305 5.54576 19.467 5.18437 19.8882C4.82298 20.3094 4.57959 20.9245 4.57959 21.6384C4.57959 22.8587 5.5949 23.8674 6.82364 23.8674H11.6009C11.7465 26.039 13.5777 27.7681 15.7996 27.7681C18.0215 27.7681 19.8527 26.0389 19.9983 23.8674H24.7755C26.0043 23.8674 27.0196 22.8588 27.0196 21.6384C27.0196 20.9245 26.7762 20.3094 26.4148 19.8882C26.0534 19.4671 25.6404 19.2305 25.3015 19.0088C24.6241 18.5652 24.1494 18.3042 23.9166 17.0324L22.7945 10.9026C22.4809 9.18864 21.7338 7.57705 20.5507 6.36642C19.5438 5.33596 18.2047 4.60984 16.6411 4.4159L16.2311 4.39307C16.2311 4.39307 16.13 4.39325 15.7031 4.39318ZM15.7996 6.03541C17.2764 6.03541 18.4332 6.59554 19.3408 7.52436C20.2485 8.45317 20.885 9.76912 21.1466 11.1988L22.2685 17.3286C22.5872 19.069 23.6538 19.9259 24.3811 20.402C24.7448 20.6401 25.0039 20.8154 25.135 20.968C25.2661 21.1207 25.3365 21.2397 25.3365 21.6385C25.3365 21.9617 25.1009 22.1957 24.7756 22.1957H6.82355C6.49816 22.1957 6.2626 21.9617 6.2626 21.6385C6.2626 21.2397 6.33304 21.1208 6.46413 20.968C6.59522 20.8154 6.85428 20.6401 7.21802 20.402C7.94532 19.9259 9.01182 19.069 9.33059 17.3286L10.4525 11.1988C10.7141 9.76917 11.3506 8.45317 12.2583 7.52436C13.1659 6.59554 14.3227 6.03541 15.7996 6.03541ZM18.2715 23.8674C18.1291 25.1285 17.1128 26.0962 15.7995 26.0962C14.4862 26.0962 13.47 25.1285 13.3275 23.8674H18.2715Z" fill="white"/>
</svg>
