<svg width="31" height="30" viewBox="0 0 31 30" fill="none" xmlns="http://www.w3.org/2000/svg">
<path d="M15.7315 4.99194C21.3178 4.99194 26.0946 8.71608 27.5519 13.8977C26.7423 13.25 25.7708 12.9261 24.6374 12.9261C22.7752 12.9261 21.156 13.8977 20.3464 15.3549C19.1319 14.2214 17.5128 13.5738 15.7316 13.5738C13.9505 13.5738 12.2503 14.2215 11.1168 15.3549C10.2262 13.8976 8.60703 12.9261 6.74485 12.9261C5.61139 12.9261 4.63993 13.25 3.83032 13.8168C5.36867 8.71624 10.0643 4.99202 15.7316 4.99202L15.7315 4.99194Z" stroke="#7ABB4A" stroke-width="1.5" stroke-linecap="round" stroke-linejoin="round"/>
<path d="M16.0206 13.9751V21.5528C16.0206 22.5412 16.3501 24.8475 14.3733 24.8475C12.7259 24.8475 12.2867 22.9805 12.3965 22.2117" stroke="#7ABB4A" stroke-width="1.5" stroke-linecap="round"/>
</svg>
