<svg width="30" height="31" viewBox="0 0 30 31" fill="none" xmlns="http://www.w3.org/2000/svg">
<path d="M19.3409 4.56458H17.7057C17.4106 3.93744 16.8875 3.44642 16.2432 3.19132C15.5986 2.93623 14.8813 2.93623 14.2368 3.19132C13.5925 3.44642 13.0694 3.93744 12.7743 4.56458H11.1649C10.9585 4.56458 10.7605 4.64659 10.6143 4.79252C10.4684 4.93862 10.3864 5.13669 10.3864 5.34309V6.3812L9.37416 6.38138C8.47922 6.38138 7.62108 6.73678 6.98815 7.36953C6.3554 8.00246 6 8.86064 6 9.75554V24.1087C6 25.0036 6.3554 25.8618 6.98815 26.4946C7.62108 27.1273 8.47926 27.4829 9.37416 27.4829H21.1058C22.0008 27.4829 22.8589 27.1273 23.4919 26.4946C24.1246 25.8618 24.48 25.0036 24.48 24.1087V9.75554C24.48 8.8606 24.1246 8.00246 23.4919 7.36953C22.8589 6.73678 22.0007 6.38138 21.1058 6.38138H20.1197V5.34309C20.1197 5.13669 20.0377 4.93862 19.8916 4.79251C19.7455 4.64659 19.5476 4.56457 19.341 4.56457L19.3409 4.56458ZM11.9437 6.12197H13.3452L13.3454 6.12179C13.523 6.11944 13.6946 6.05643 13.8315 5.9431C13.9685 5.82976 14.0625 5.67315 14.098 5.49899C14.1539 5.12712 14.3855 4.80483 14.7201 4.6332C15.0546 4.46175 15.4513 4.46175 15.7861 4.6332C16.1206 4.80483 16.352 5.12709 16.408 5.49899C16.4435 5.67315 16.5376 5.82976 16.6745 5.9431C16.8113 6.05643 16.983 6.11944 17.1608 6.12179H18.5622V8.06842H11.9437L11.9437 6.12197ZM21.1058 7.93878V7.9386C21.5878 7.9386 22.0498 8.13015 22.3906 8.47086C22.7313 8.8116 22.9228 9.27362 22.9228 9.75559V24.1087C22.9228 24.5905 22.7313 25.0527 22.3906 25.3935C22.0498 25.7342 21.5878 25.9256 21.1058 25.9256H9.37416C8.89223 25.9256 8.43018 25.7342 8.08943 25.3935C7.74869 25.0527 7.55716 24.5905 7.55716 24.1087V9.75559C7.55716 9.27366 7.74871 8.81162 8.08943 8.47086C8.43016 8.13013 8.89218 7.9386 9.37416 7.9386H10.3605V8.84712H10.3603C10.3603 9.05369 10.4423 9.25176 10.5884 9.39769C10.7345 9.5438 10.9324 9.62581 11.139 9.62581H19.3408C19.5474 9.62581 19.7453 9.5438 19.8914 9.39769C20.0375 9.25177 20.1195 9.0537 20.1195 8.84712V7.9386L21.1058 7.93878Z" fill="#7ABB4A"/>
<path d="M11.4353 14.9573H19.0447" stroke="#7ABB4A" stroke-width="1.6392" stroke-linecap="round"/>
<path d="M11.4353 18.2185H19.0447" stroke="#7ABB4A" stroke-width="1.6392" stroke-linecap="round"/>
</svg>
