<svg width="31" height="31" viewBox="0 0 31 31" fill="none" xmlns="http://www.w3.org/2000/svg">
<path d="M21.9855 27.4791H21.9855H8.13745C7.52435 27.4791 6.93686 27.2326 6.50395 26.7944C6.07107 26.3564 5.82835 25.7627 5.82852 25.1441C5.82852 25.1441 5.82852 25.1441 5.82852 25.1441L5.82852 7.07071C5.82852 6.45218 6.07123 5.85859 6.50409 5.42061C6.5041 5.42061 6.5041 5.42061 6.5041 5.42061L21.9855 27.4791ZM21.9855 27.4791C22.599 27.4789 23.1867 27.2322 23.6199 26.7937L23.6199 26.7937M21.9855 27.4791L23.6199 26.7937M23.6199 26.7937C24.0527 26.3552 24.2954 25.7609 24.2949 25.1419L24.2824 11.0838C24.328 10.8662 24.2618 10.6394 24.1053 10.4813L18.6136 4.93071L23.6199 26.7937ZM7.43086 6.35355L7.43087 6.35355C7.61846 6.16372 7.87253 6.05745 8.13719 6.05745L17.4949 6.05762L17.4952 10.9477C17.4952 11.311 17.7866 11.6084 18.1498 11.6084H22.9733L22.9854 25.1432C22.9854 25.1432 22.9854 25.1432 22.9854 25.1433C22.9856 25.4128 22.8799 25.671 22.6922 25.8612C22.5044 26.0514 22.2502 26.1578 21.9852 26.1578H8.13728C7.87263 26.1576 7.61851 26.0512 7.43086 25.8613C7.24331 25.6714 7.13749 25.4133 7.13749 25.1442V7.07073C7.13749 6.80135 7.24319 6.54344 7.43086 6.35355ZM18.6134 4.93048C18.4846 4.7999 18.3066 4.72905 18.1233 4.73681L18.6134 4.93048ZM18.804 6.99398L22.0635 10.2868H18.804V6.99398Z" fill="#7ABB4A" stroke="#7ABB4A" stroke-width="0.3"/>
<path d="M10.8293 21.4087L18.9046 13.3335" stroke="#7ABB4A" stroke-width="1.9272" stroke-linecap="round"/>
<circle cx="11.9838" cy="14.0986" r="1.73041" stroke="#7ABB4A" stroke-width="1.64073"/>
<circle cx="18.2697" cy="20.2551" r="1.73041" stroke="#7ABB4A" stroke-width="1.64073"/>
</svg>
